<svg xmlns="http://www.w3.org/2000/svg" xmlns:xlink="http://www.w3.org/1999/xlink" version="1.1" x="0px" y="0px" viewBox="0 0 512 640" style="enable-background:new 0 0 512 512;" xml:space="preserve"><g><g><g><polygon points="57.814,180.71 47.72,183.668 44.864,174.119 54.964,171.161 57.814,180.592 67.909,177.634 70.766,187.183      60.666,190.14    "/><path d="M469.215,286.707c3.184,3.301,5.273,7.79,5.273,12.624c0,5.048-2.09,9.548-5.379,12.839l-0.216,0.225     c-3.3,3.184-7.693,5.154-12.623,5.154c-4.939,0-9.548-2.09-12.84-5.379l-0.105-0.107c-3.302-3.291-5.167-7.792-5.167-12.731     c0-4.94,1.973-9.44,5.272-12.731l0.217-0.214c3.3-3.183,7.684-5.167,12.623-5.167c5.048,0,9.548,2.091,12.839,5.381     L469.215,286.707z M463.837,299.331c0-1.973-0.88-3.954-2.186-5.261c-1.438-1.438-3.303-2.198-5.381-2.198     s-3.943,0.761-5.272,2.198c-1.414,1.307-2.187,3.288-2.187,5.261c0,2.09,0.772,4.062,2.078,5.38     c1.438,1.425,3.303,2.195,5.381,2.195s3.943-0.771,5.381-2.195C462.957,303.393,463.837,301.421,463.837,299.331z"/><path d="M441.675,47.268c2.528,1.426,3.407,4.716,1.864,7.245c-0.438,0.76-1.093,1.425-1.864,1.864l-19.419,11.188     c-2.528,1.425-5.711,0.663-7.138-1.865c-1.542-2.519-0.663-5.818,1.865-7.244l11.413-6.58l-11.413-6.591     c-2.528-1.532-3.407-4.715-1.865-7.233c1.427-2.529,4.609-3.408,7.138-1.982L441.675,47.268z"/><path d="M405.238,156.341c18.775,0,34.133,14.928,34.133,33.253c0,11.521-6.141,22.173-16.129,28.206     c0.547,3.183,0.879,6.473,0.879,9.762c0,32.708-27.885,61.128-68.812,76.045c0,0.333,0,0.559,0,0.88     c21.294,13.277,34.681,32.705,34.681,54.429c0,23.598-16.022,45.759-42.792,59.262l-0.665-1.425     c-1.425,5.819-2.958,11.52-4.939,16.792h11.52c9.217,0,16.687,2.852,22.28,8.445c10.973,11.08,10.534,28.646,10.427,29.406     l-0.106,5.047H194.327L194,471.512c0-0.771-0.771-17.896,10.095-28.976c5.814-6.034,13.824-8.992,23.705-8.992h11.408     c-1.646-4.727-2.964-9.666-4.276-14.928l-0.439,0.772c-28.313-13.397-45.213-35.998-45.213-60.474     c0-22.27,14.156-42.139,36.323-55.416c-40.824-14.81-68.585-43.348-68.585-75.938c0-3.396,0.327-6.804,0.986-10.095     c-9.763-6.032-15.801-16.567-15.801-27.873c0-18.325,15.362-33.253,34.239-33.253c8.337,0,16.021,2.968,22.273,8.229     c23.159-14.264,53.883-23.266,88.01-23.919l23.929-65.949l57.612,13.385c4.276-9.988,14.254-17.008,25.999-17.008     c15.368,0,27.991,12.175,27.991,27.103c0,15.036-12.623,27.221-27.991,27.221c-15.475,0-27.981-12.185-27.981-27.113     l-48.609-11.295l-19.644,53.872c32.813,1.21,62.435,9.987,84.715,23.822C388.885,159.416,396.794,156.341,405.238,156.341z      M428.622,189.594c0-12.624-10.546-22.826-23.384-22.826c-4.929,0-9.537,1.532-13.492,4.169     c13.492,10.213,23.372,22.494,28.42,35.997C425.428,202.657,428.622,196.398,428.622,189.594z M411.497,98.182     c0-9.108-7.791-16.675-17.232-16.675c-9.538,0-17.231,7.566-17.231,16.675c0,9.217,7.693,16.793,17.231,16.793     C403.706,114.975,411.497,107.398,411.497,98.182z M413.362,227.562c0-42.244-55.084-76.59-122.79-76.59     c-67.713,0-122.801,34.346-122.801,76.59c0,42.245,55.088,76.604,122.801,76.604     C358.278,304.165,413.362,269.807,413.362,227.562z M320.299,466.025h54.44c-0.558-4.833-2.314-11.97-7.029-16.793     c-3.624-3.514-8.338-5.272-14.597-5.272h-15.796C332.816,453.188,327.223,460.54,320.299,466.025z M348.943,405.114     c19.098-11.629,30.297-28.528,30.297-46.199c0-16.129-9.109-30.726-23.931-41.806C354.979,348.82,353.563,379.33,348.943,405.114     z M344.563,310.306c-1.33-0.772-2.744-1.427-4.074-2.09c-15.463,4.061-32.255,6.365-49.916,6.365     c-18.111,0-35.339-2.411-51.146-6.581c-0.766,0.333-1.645,0.547-2.303,0.987c0.331,83.405,5.818,156.375,53.662,156.375     C334.018,465.362,343.896,406.324,344.563,310.306z M205.081,466.025h55.42c-7.024-5.38-12.623-12.838-17.012-22.065H227.8     c-6.805,0-12.072,1.864-15.913,5.819C207.165,454.496,205.633,461.418,205.081,466.025z M232.407,406.324     c-4.5-25.784-5.818-57.065-6.038-90.972c-16.24,11.198-26.335,26.556-26.335,43.563     C200.034,377.357,212.105,394.578,232.407,406.324z M189.606,170.722c-3.837-2.528-8.338-3.954-13.165-3.954     c-12.951,0-23.485,10.202-23.485,22.826c0,6.698,3.075,12.839,8.123,17.114C166.234,193.216,176.002,180.925,189.606,170.722z"/><path d="M414.348,487.201c2.957,0,5.272,2.306,5.272,5.263c0,2.968-2.315,5.272-5.272,5.272h-27.649     c-2.85,0-5.272-2.305-5.272-5.272c0-2.957,2.423-5.263,5.272-5.263H414.348z"/><path d="M395.915,501.358c2.957,0,5.272,2.411,5.272,5.261c0,2.97-2.315,5.381-5.272,5.381h-59.036     c-2.969,0-5.264-2.411-5.264-5.381c0-2.85,2.295-5.261,5.264-5.261H395.915z"/><path d="M339.954,260.151c2.186,1.983,2.293,5.272,0.213,7.352c-0.663,0.558-15.795,15.475-49.82,15.475     c-34.347,0-48.063-15.142-48.615-15.688c-1.972-2.197-1.646-5.594,0.553-7.353c2.19-1.864,5.594-1.649,7.571,0.44     c0.326,0.438,11.738,12.174,40.491,12.174c29.074,0,41.912-12.281,42.03-12.399C334.468,258.18,337.863,258.18,339.954,260.151z"/><path d="M335.882,191.791c11.744,0,21.067,9.108,21.067,20.403c0,11.307-9.323,20.415-21.067,20.415     c-11.51,0-20.952-9.108-20.952-20.415C314.93,200.899,324.372,191.791,335.882,191.791z"/><path d="M248.097,191.791c11.633,0,21.063,9.108,21.063,20.403c0,11.307-9.431,20.415-21.063,20.415     c-11.632,0-21.067-9.108-21.067-20.415C227.029,200.899,236.465,191.791,248.097,191.791z"/><path d="M188.074,17.09c0.766,2.851-0.991,5.809-3.735,6.473l-9.436,2.637c-2.851,0.653-5.813-0.986-6.473-3.848     c-0.771-2.743,0.878-5.701,3.729-6.473l9.436-2.518C184.339,12.59,187.303,14.347,188.074,17.09z"/><path d="M174.903,40.023c0.771,2.852-0.985,5.701-3.729,6.473c-2.855,0.771-5.819-0.985-6.585-3.729l-2.417-9.323     c-0.766-2.743,0.879-5.711,3.734-6.483c2.852-0.761,5.707,0.997,6.473,3.847L174.903,40.023z"/><path d="M168.87,396.229c2.523,2.519,4.168,6.032,4.168,9.882c0,3.942-1.645,7.458-4.168,9.976     c-2.523,2.529-6.039,4.179-9.988,4.179c-3.842,0-7.352-1.649-9.875-4.179c-2.524-2.518-4.168-6.033-4.168-9.976     c0-3.85,1.645-7.363,4.168-9.882c2.523-2.528,6.033-4.168,9.875-4.168C162.831,392.062,166.347,393.701,168.87,396.229z      M162.392,406.111c0-0.88-0.434-1.759-0.986-2.423c-0.659-0.654-1.538-0.985-2.524-0.985c-0.878,0-1.758,0.331-2.411,0.985     c-0.659,0.664-0.991,1.543-0.991,2.423c0,0.984,0.332,1.864,0.991,2.517c0.653,0.547,1.533,0.986,2.411,0.986     c0.986,0,1.865-0.439,2.524-0.986C161.958,407.976,162.392,407.096,162.392,406.111z"/><path d="M167.552,12.804c0.767,2.861-0.879,5.712-3.729,6.483c-2.856,0.762-5.706-0.879-6.478-3.74l-2.412-8.884     c-0.771-2.851,0.985-5.712,3.729-6.473c2.856-0.772,5.819,0.878,6.585,3.729L167.552,12.804z"/><path d="M161.625,24.217c0.767,2.861-0.878,5.712-3.729,6.483l-9.656,2.626c-2.743,0.663-5.706-0.986-6.478-3.837     c-0.766-2.743,0.879-5.712,3.735-6.473l9.655-2.529C158.003,19.727,160.859,21.366,161.625,24.217z"/><polygon points="60.666,190.14 63.521,199.688 53.426,202.765 50.571,193.216    "/><polygon points="47.607,183.668 50.464,193.216 40.369,196.174 37.512,186.636    "/></g></g></g><text x="0" y="527" fill="#000000" font-size="5px" font-weight="bold" font-family="'Helvetica Neue', Helvetica, Arial-Unicode, Arial, Sans-serif">Created by ibrandify</text><text x="0" y="532" fill="#000000" font-size="5px" font-weight="bold" font-family="'Helvetica Neue', Helvetica, Arial-Unicode, Arial, Sans-serif">from the Noun Project</text></svg>